<?xml version="1.0" encoding="UTF-8"?>
<svg xmlns="http://www.w3.org/2000/svg" xmlns:xlink="http://www.w3.org/1999/xlink" width="151px" height="34px" viewBox="0 0 151 34" version="1.1">
<g id="surface1">
<path style=" stroke:none;fill-rule:nonzero;fill:rgb(0%,0%,0%);fill-opacity:1;" d="M 47.933594 29.433594 L 37.734375 29.433594 L 37.734375 25.9375 L 40.582031 25.9375 L 40.582031 3.601562 L 37.566406 3.601562 L 37.566406 0.105469 L 45.085938 0.105469 L 45.085938 25.9375 L 47.933594 25.9375 Z M 67.109375 23.59375 C 66.941406 25.269531 66.121094 26.734375 64.648438 27.984375 C 63.171875 29.234375 61.148438 29.859375 58.570312 29.859375 C 55.792969 29.859375 53.515625 29.050781 51.730469 27.429688 C 49.945312 25.78125 49.050781 23.367188 49.050781 20.183594 C 49.050781 17.253906 49.859375 14.8125 51.472656 12.851562 C 53.117188 10.890625 55.398438 9.910156 58.316406 9.910156 C 60.949219 9.910156 63.03125 10.707031 64.5625 12.296875 C 66.121094 13.859375 66.914062 15.847656 66.941406 18.265625 C 66.941406 19.058594 66.855469 19.914062 66.6875 20.820312 L 53.8125 20.820312 C 54.066406 24.402344 55.765625 26.191406 58.910156 26.191406 C 60.382812 26.191406 61.429688 25.839844 62.054688 25.128906 C 62.707031 24.417969 63.132812 23.664062 63.328125 22.867188 Z M 62.265625 18.007812 C 62.378906 16.871094 62.113281 15.804688 61.460938 14.8125 C 60.835938 13.789062 59.773438 13.277344 58.273438 13.277344 C 56.914062 13.277344 55.878906 13.730469 55.171875 14.640625 C 54.460938 15.550781 54.023438 16.671875 53.855469 18.007812 Z M 89.144531 29.433594 L 80.007812 29.433594 L 80.007812 25.9375 L 81.835938 25.9375 L 78.394531 22.015625 L 74.996094 25.9375 L 76.609375 25.9375 L 76.609375 29.433594 L 68.070312 29.433594 L 68.070312 25.9375 L 70.703125 25.9375 L 76.226562 19.96875 L 70.363281 13.789062 L 68.195312 13.789062 L 68.195312 10.292969 L 77.503906 10.292969 L 77.503906 13.789062 L 75.71875 13.789062 L 78.90625 17.625 L 82.304688 13.789062 L 80.648438 13.789062 L 80.648438 10.292969 L 88.675781 10.292969 L 88.675781 13.789062 L 86.679688 13.789062 L 81.199219 19.542969 L 87.105469 25.9375 L 89.144531 25.9375 Z M 92.941406 6.328125 L 92.941406 1.300781 L 97.574219 1.300781 L 97.574219 6.328125 Z M 100.546875 29.433594 L 90.347656 29.433594 L 90.347656 25.9375 L 93.195312 25.9375 L 93.195312 13.832031 L 90.179688 13.832031 L 90.179688 10.292969 L 97.699219 10.292969 L 97.699219 25.9375 L 100.546875 25.9375 Z M 119.414062 22.570312 C 119.214844 24.273438 118.464844 25.921875 117.160156 27.515625 C 115.859375 29.078125 113.761719 29.859375 110.871094 29.859375 C 108.152344 29.859375 105.929688 29.035156 104.199219 27.386719 C 102.5 25.738281 101.652344 23.335938 101.652344 20.183594 C 101.652344 17.085938 102.53125 14.597656 104.285156 12.722656 C 106.070312 10.847656 108.394531 9.910156 111.253906 9.910156 C 112.386719 9.910156 113.519531 10.050781 114.652344 10.335938 C 115.789062 10.621094 116.90625 11.089844 118.011719 11.742188 L 118.777344 17.113281 L 115.121094 17.496094 L 114.484375 14.34375 C 113.4375 13.832031 112.332031 13.574219 111.167969 13.574219 C 107.996094 13.574219 106.410156 15.707031 106.410156 19.96875 C 106.410156 24.117188 108.039062 26.191406 111.296875 26.191406 C 113.675781 26.191406 115.105469 24.742188 115.589844 21.84375 Z M 122.589844 11.699219 C 124.007812 11.019531 125.269531 10.550781 126.375 10.292969 C 127.476562 10.039062 128.753906 9.910156 130.199219 9.910156 C 132.324219 9.910156 134.066406 10.449219 135.425781 11.53125 C 136.8125 12.609375 137.507812 14.230469 137.507812 16.390625 L 137.507812 25 C 137.507812 26.136719 137.972656 26.703125 138.910156 26.703125 C 139.164062 26.703125 139.488281 26.648438 139.886719 26.535156 L 139.929688 29.050781 C 138.992188 29.589844 137.972656 29.859375 136.867188 29.859375 C 134.460938 29.859375 133.15625 28.59375 132.960938 26.066406 L 132.960938 25.980469 C 132.394531 26.976562 131.585938 27.871094 130.539062 28.664062 C 129.519531 29.460938 128.242188 29.859375 126.714844 29.859375 C 125.382812 29.859375 124.066406 29.460938 122.761719 28.664062 C 121.488281 27.839844 120.847656 26.421875 120.847656 24.402344 C 120.847656 22.042969 121.785156 20.496094 123.652344 19.757812 C 125.523438 18.988281 127.550781 18.605469 129.730469 18.605469 C 130.269531 18.605469 130.820312 18.621094 131.386719 18.648438 C 131.953125 18.675781 132.476562 18.71875 132.960938 18.777344 L 132.960938 17.710938 C 132.960938 16.574219 132.761719 15.550781 132.363281 14.640625 C 131.96875 13.730469 130.976562 13.277344 129.390625 13.277344 C 128.796875 13.277344 128.230469 13.320312 127.691406 13.40625 C 127.179688 13.492188 126.683594 13.660156 126.203125 13.917969 L 125.4375 16.859375 L 121.785156 16.472656 Z M 132.960938 21.84375 L 132.960938 21.164062 C 132.476562 21.105469 131.980469 21.050781 131.472656 20.992188 C 130.960938 20.9375 130.4375 20.90625 129.898438 20.90625 C 128.765625 20.90625 127.746094 21.105469 126.839844 21.503906 C 125.960938 21.902344 125.523438 22.699219 125.523438 23.890625 C 125.523438 25.625 126.445312 26.492188 128.285156 26.492188 C 129.363281 26.492188 130.382812 26.109375 131.34375 25.339844 C 132.308594 24.546875 132.847656 23.378906 132.960938 21.84375 Z M 150.765625 29.433594 L 140.570312 29.433594 L 140.570312 25.9375 L 143.414062 25.9375 L 143.414062 3.601562 L 140.398438 3.601562 L 140.398438 0.105469 L 147.921875 0.105469 L 147.921875 25.9375 L 150.765625 25.9375 Z M 150.765625 29.433594 "/>
<path style=" stroke:none;fill-rule:nonzero;fill:rgb(46.27451%,71.372549%,100%);fill-opacity:1;" d="M 92.824219 1.269531 L 97.632812 1.269531 L 97.632812 6.34375 L 92.824219 6.34375 Z M 92.824219 1.269531 "/>
<path style=" stroke:none;fill-rule:nonzero;fill:rgb(46.27451%,71.372549%,100%);fill-opacity:1;" d="M 5.058594 14.460938 L 10.625 14.460938 L 10.625 17 L 5.058594 17 Z M 5.058594 14.460938 "/>
<path style=" stroke:none;fill-rule:nonzero;fill:rgb(0%,0%,0%);fill-opacity:1;" d="M 11.886719 14.460938 L 17.453125 14.460938 L 17.453125 17 L 11.886719 17 Z M 11.886719 14.460938 "/>
<path style=" stroke:none;fill-rule:nonzero;fill:rgb(46.27451%,71.372549%,100%);fill-opacity:1;" d="M 18.71875 14.460938 L 20.992188 14.460938 L 20.992188 17 L 18.71875 17 Z M 18.71875 14.460938 "/>
<path style=" stroke:none;fill-rule:nonzero;fill:rgb(46.27451%,71.372549%,100%);fill-opacity:1;" d="M 5.058594 18.523438 L 14.164062 18.523438 L 14.164062 21.058594 L 5.058594 21.058594 Z M 5.058594 18.523438 "/>
<path style=" stroke:none;fill-rule:nonzero;fill:rgb(46.27451%,71.372549%,100%);fill-opacity:1;" d="M 15.429688 18.523438 L 20.992188 18.523438 L 20.992188 21.058594 L 15.429688 21.058594 Z M 15.429688 18.523438 "/>
<path style=" stroke:none;fill-rule:nonzero;fill:rgb(0%,0%,0%);fill-opacity:1;" d="M 5.058594 22.582031 L 10.625 22.582031 L 10.625 25.121094 L 5.058594 25.121094 Z M 5.058594 22.582031 "/>
<path style=" stroke:none;fill-rule:nonzero;fill:rgb(46.27451%,71.372549%,100%);fill-opacity:1;" d="M 11.886719 22.582031 L 17.453125 22.582031 L 17.453125 25.121094 L 11.886719 25.121094 Z M 11.886719 22.582031 "/>
<path style=" stroke:none;fill-rule:nonzero;fill:rgb(0%,0%,0%);fill-opacity:1;" d="M 18.71875 22.582031 L 20.992188 22.582031 L 20.992188 25.121094 L 18.71875 25.121094 Z M 18.71875 22.582031 "/>
<path style=" stroke:none;fill-rule:nonzero;fill:rgb(0%,0%,0%);fill-opacity:1;" d="M 0 9.386719 L 20.992188 9.386719 L 20.992188 11.925781 L 2.53125 11.925781 L 2.53125 27.65625 L 20.992188 27.65625 L 20.992188 30.195312 L 0 30.195312 Z M 0 9.386719 "/>
<path style=" stroke:none;fill-rule:nonzero;fill:rgb(0%,0%,0%);fill-opacity:1;" d="M 29.847656 9.386719 L 26.050781 9.386719 L 26.050781 11.925781 L 27.316406 11.925781 L 27.316406 27.65625 L 26.050781 27.65625 L 26.050781 30.195312 L 29.847656 30.195312 Z M 29.847656 9.386719 "/>
<path style=" stroke:none;fill-rule:nonzero;fill:rgb(0%,0%,0%);fill-opacity:1;" d="M 19.730469 8.121094 L 19.730469 5.582031 L 27.570312 5.582031 L 27.570312 8.121094 L 24.789062 8.121094 L 24.789062 31.460938 L 27.570312 31.460938 L 27.570312 34 L 19.730469 34 L 19.730469 31.460938 L 22.257812 31.460938 L 22.257812 8.121094 Z M 19.730469 8.121094 "/>
</g>
</svg>
